<mxfile host="Electron" agent="Mozilla/5.0 (Windows NT 10.0; Win64; x64) AppleWebKit/537.36 (KHTML, like Gecko) draw.io/26.0.16 Chrome/132.0.6834.196 Electron/34.2.0 Safari/537.36" version="26.0.16">
  <diagram name="Страница — 1" id="SzMmKn7BkvnFghalI5fv">
    <mxGraphModel dx="1888" dy="1927" grid="1" gridSize="10" guides="1" tooltips="1" connect="1" arrows="1" fold="1" page="1" pageScale="1" pageWidth="827" pageHeight="1169" math="0" shadow="0">
      <root>
        <mxCell id="0" />
        <mxCell id="1" parent="0" />
        <mxCell id="PXjoyDLVkXk3ehVnjPj2-1" value="x0" style="text;html=1;align=center;verticalAlign=middle;whiteSpace=wrap;rounded=0;" parent="1" vertex="1">
          <mxGeometry x="80" y="30" width="40" height="20" as="geometry" />
        </mxCell>
        <mxCell id="PXjoyDLVkXk3ehVnjPj2-2" value="x1" style="text;html=1;align=center;verticalAlign=middle;whiteSpace=wrap;rounded=0;" parent="1" vertex="1">
          <mxGeometry x="80" y="50" width="40" height="20" as="geometry" />
        </mxCell>
        <mxCell id="PXjoyDLVkXk3ehVnjPj2-3" value="x2" style="text;html=1;align=center;verticalAlign=middle;whiteSpace=wrap;rounded=0;" parent="1" vertex="1">
          <mxGeometry x="80" y="70" width="40" height="20" as="geometry" />
        </mxCell>
        <mxCell id="PXjoyDLVkXk3ehVnjPj2-4" value="x3" style="text;html=1;align=center;verticalAlign=middle;whiteSpace=wrap;rounded=0;" parent="1" vertex="1">
          <mxGeometry x="80" y="90" width="40" height="20" as="geometry" />
        </mxCell>
        <mxCell id="PXjoyDLVkXk3ehVnjPj2-5" value="z0" style="text;html=1;align=center;verticalAlign=middle;whiteSpace=wrap;rounded=0;" parent="1" vertex="1">
          <mxGeometry x="80" y="130" width="40" height="20" as="geometry" />
        </mxCell>
        <mxCell id="PXjoyDLVkXk3ehVnjPj2-6" value="z1" style="text;html=1;align=center;verticalAlign=middle;whiteSpace=wrap;rounded=0;" parent="1" vertex="1">
          <mxGeometry x="80" y="150" width="40" height="20" as="geometry" />
        </mxCell>
        <mxCell id="PXjoyDLVkXk3ehVnjPj2-7" value="z2" style="text;html=1;align=center;verticalAlign=middle;whiteSpace=wrap;rounded=0;" parent="1" vertex="1">
          <mxGeometry x="80" y="170" width="40" height="20" as="geometry" />
        </mxCell>
        <mxCell id="PXjoyDLVkXk3ehVnjPj2-8" value="z3" style="text;html=1;align=center;verticalAlign=middle;whiteSpace=wrap;rounded=0;" parent="1" vertex="1">
          <mxGeometry x="80" y="190" width="40" height="20" as="geometry" />
        </mxCell>
        <mxCell id="PXjoyDLVkXk3ehVnjPj2-9" value="SI" style="text;html=1;align=center;verticalAlign=middle;whiteSpace=wrap;rounded=0;" parent="1" vertex="1">
          <mxGeometry x="80" y="460" width="40" height="20" as="geometry" />
        </mxCell>
        <mxCell id="PXjoyDLVkXk3ehVnjPj2-10" value="y0" style="text;html=1;align=center;verticalAlign=middle;whiteSpace=wrap;rounded=0;" parent="1" vertex="1">
          <mxGeometry x="80" y="500" width="40" height="20" as="geometry" />
        </mxCell>
        <mxCell id="PXjoyDLVkXk3ehVnjPj2-11" value="y1" style="text;html=1;align=center;verticalAlign=middle;whiteSpace=wrap;rounded=0;" parent="1" vertex="1">
          <mxGeometry x="80" y="520" width="40" height="20" as="geometry" />
        </mxCell>
        <mxCell id="PXjoyDLVkXk3ehVnjPj2-12" value="y2" style="text;html=1;align=center;verticalAlign=middle;whiteSpace=wrap;rounded=0;" parent="1" vertex="1">
          <mxGeometry x="80" y="540" width="40" height="20" as="geometry" />
        </mxCell>
        <mxCell id="PXjoyDLVkXk3ehVnjPj2-13" value="EN" style="text;html=1;align=center;verticalAlign=middle;whiteSpace=wrap;rounded=0;" parent="1" vertex="1">
          <mxGeometry x="80" y="589" width="40" height="20" as="geometry" />
        </mxCell>
        <mxCell id="PXjoyDLVkXk3ehVnjPj2-14" value="CLK" style="text;html=1;align=center;verticalAlign=middle;whiteSpace=wrap;rounded=0;" parent="1" vertex="1">
          <mxGeometry x="80" y="620" width="40" height="20" as="geometry" />
        </mxCell>
        <mxCell id="PXjoyDLVkXk3ehVnjPj2-15" value="CLR" style="text;html=1;align=center;verticalAlign=middle;whiteSpace=wrap;rounded=0;" parent="1" vertex="1">
          <mxGeometry x="80" y="650" width="40" height="20" as="geometry" />
        </mxCell>
        <mxCell id="PXjoyDLVkXk3ehVnjPj2-16" value="" style="rounded=0;whiteSpace=wrap;html=1;fillColor=none;" parent="1" vertex="1">
          <mxGeometry x="985" y="80" width="120" height="600" as="geometry" />
        </mxCell>
        <mxCell id="PXjoyDLVkXk3ehVnjPj2-17" value="CLR" style="text;html=1;align=center;verticalAlign=middle;whiteSpace=wrap;rounded=0;" parent="1" vertex="1">
          <mxGeometry x="985" y="650" width="40" height="20" as="geometry" />
        </mxCell>
        <mxCell id="PXjoyDLVkXk3ehVnjPj2-18" value="" style="endArrow=none;html=1;rounded=0;exitX=1;exitY=0.5;exitDx=0;exitDy=0;entryX=0;entryY=0.5;entryDx=0;entryDy=0;" parent="1" source="PXjoyDLVkXk3ehVnjPj2-15" target="PXjoyDLVkXk3ehVnjPj2-17" edge="1">
          <mxGeometry width="50" height="50" relative="1" as="geometry">
            <mxPoint x="420" y="690" as="sourcePoint" />
            <mxPoint x="470" y="640" as="targetPoint" />
          </mxGeometry>
        </mxCell>
        <mxCell id="PXjoyDLVkXk3ehVnjPj2-19" value="" style="endArrow=none;html=1;rounded=0;entryX=0;entryY=0.5;entryDx=0;entryDy=0;exitX=1;exitY=0.5;exitDx=0;exitDy=0;" parent="1" source="PXjoyDLVkXk3ehVnjPj2-14" target="PXjoyDLVkXk3ehVnjPj2-20" edge="1">
          <mxGeometry width="50" height="50" relative="1" as="geometry">
            <mxPoint x="510" y="655" as="sourcePoint" />
            <mxPoint x="740" y="630" as="targetPoint" />
          </mxGeometry>
        </mxCell>
        <mxCell id="PXjoyDLVkXk3ehVnjPj2-20" value="CLK" style="text;html=1;align=center;verticalAlign=middle;whiteSpace=wrap;rounded=0;" parent="1" vertex="1">
          <mxGeometry x="985" y="620" width="40" height="20" as="geometry" />
        </mxCell>
        <mxCell id="PXjoyDLVkXk3ehVnjPj2-21" value="EN" style="text;html=1;align=center;verticalAlign=middle;whiteSpace=wrap;rounded=0;" parent="1" vertex="1">
          <mxGeometry x="985" y="589" width="40" height="20" as="geometry" />
        </mxCell>
        <mxCell id="PXjoyDLVkXk3ehVnjPj2-22" value="" style="endArrow=none;html=1;rounded=0;exitX=1;exitY=0.5;exitDx=0;exitDy=0;entryX=0;entryY=0.5;entryDx=0;entryDy=0;" parent="1" source="PXjoyDLVkXk3ehVnjPj2-13" target="PXjoyDLVkXk3ehVnjPj2-21" edge="1">
          <mxGeometry width="50" height="50" relative="1" as="geometry">
            <mxPoint x="280" y="620" as="sourcePoint" />
            <mxPoint x="330" y="570" as="targetPoint" />
          </mxGeometry>
        </mxCell>
        <mxCell id="PXjoyDLVkXk3ehVnjPj2-23" value="SI" style="text;html=1;align=center;verticalAlign=middle;whiteSpace=wrap;rounded=0;" parent="1" vertex="1">
          <mxGeometry x="985" y="460" width="40" height="20" as="geometry" />
        </mxCell>
        <mxCell id="PXjoyDLVkXk3ehVnjPj2-24" value="Y0" style="text;html=1;align=center;verticalAlign=middle;whiteSpace=wrap;rounded=0;" parent="1" vertex="1">
          <mxGeometry x="985" y="500" width="40" height="20" as="geometry" />
        </mxCell>
        <mxCell id="PXjoyDLVkXk3ehVnjPj2-25" value="Y1" style="text;html=1;align=center;verticalAlign=middle;whiteSpace=wrap;rounded=0;" parent="1" vertex="1">
          <mxGeometry x="985" y="520" width="40" height="20" as="geometry" />
        </mxCell>
        <mxCell id="PXjoyDLVkXk3ehVnjPj2-26" value="Y2" style="text;html=1;align=center;verticalAlign=middle;whiteSpace=wrap;rounded=0;" parent="1" vertex="1">
          <mxGeometry x="985" y="540" width="40" height="20" as="geometry" />
        </mxCell>
        <mxCell id="PXjoyDLVkXk3ehVnjPj2-27" value="" style="endArrow=none;html=1;rounded=0;exitX=1;exitY=0.5;exitDx=0;exitDy=0;entryX=0;entryY=0.5;entryDx=0;entryDy=0;" parent="1" source="PXjoyDLVkXk3ehVnjPj2-12" target="PXjoyDLVkXk3ehVnjPj2-26" edge="1">
          <mxGeometry width="50" height="50" relative="1" as="geometry">
            <mxPoint x="250" y="550" as="sourcePoint" />
            <mxPoint x="300" y="500" as="targetPoint" />
          </mxGeometry>
        </mxCell>
        <mxCell id="PXjoyDLVkXk3ehVnjPj2-28" value="" style="endArrow=none;html=1;rounded=0;exitX=1;exitY=0.5;exitDx=0;exitDy=0;entryX=0;entryY=0.5;entryDx=0;entryDy=0;" parent="1" source="PXjoyDLVkXk3ehVnjPj2-11" target="PXjoyDLVkXk3ehVnjPj2-25" edge="1">
          <mxGeometry width="50" height="50" relative="1" as="geometry">
            <mxPoint x="260" y="490" as="sourcePoint" />
            <mxPoint x="310" y="440" as="targetPoint" />
          </mxGeometry>
        </mxCell>
        <mxCell id="PXjoyDLVkXk3ehVnjPj2-29" value="" style="endArrow=none;html=1;rounded=0;exitX=1;exitY=0.5;exitDx=0;exitDy=0;entryX=0;entryY=0.5;entryDx=0;entryDy=0;" parent="1" source="PXjoyDLVkXk3ehVnjPj2-10" target="PXjoyDLVkXk3ehVnjPj2-24" edge="1">
          <mxGeometry width="50" height="50" relative="1" as="geometry">
            <mxPoint x="270" y="500" as="sourcePoint" />
            <mxPoint x="320" y="450" as="targetPoint" />
          </mxGeometry>
        </mxCell>
        <mxCell id="PXjoyDLVkXk3ehVnjPj2-30" value="" style="endArrow=none;html=1;rounded=0;exitX=1;exitY=0.5;exitDx=0;exitDy=0;entryX=0;entryY=0.5;entryDx=0;entryDy=0;" parent="1" source="PXjoyDLVkXk3ehVnjPj2-9" target="PXjoyDLVkXk3ehVnjPj2-23" edge="1">
          <mxGeometry width="50" height="50" relative="1" as="geometry">
            <mxPoint x="330" y="470" as="sourcePoint" />
            <mxPoint x="380" y="420" as="targetPoint" />
          </mxGeometry>
        </mxCell>
        <mxCell id="PXjoyDLVkXk3ehVnjPj2-31" value="D(3:0)" style="text;html=1;align=center;verticalAlign=middle;whiteSpace=wrap;rounded=0;" parent="1" vertex="1">
          <mxGeometry x="985" y="390" width="56" height="20" as="geometry" />
        </mxCell>
        <mxCell id="PXjoyDLVkXk3ehVnjPj2-32" value="" style="rounded=0;whiteSpace=wrap;html=1;fillColor=none;" parent="1" vertex="1">
          <mxGeometry x="279" y="-360" width="120" height="60" as="geometry" />
        </mxCell>
        <mxCell id="PXjoyDLVkXk3ehVnjPj2-33" value="SM" style="text;html=1;align=center;verticalAlign=middle;whiteSpace=wrap;rounded=0;" parent="1" vertex="1">
          <mxGeometry x="985" y="220" width="40" height="20" as="geometry" />
        </mxCell>
        <mxCell id="PXjoyDLVkXk3ehVnjPj2-36" value="SM" style="text;html=1;align=center;verticalAlign=middle;whiteSpace=wrap;rounded=0;" parent="1" vertex="1">
          <mxGeometry x="319" y="-360" width="40" height="20" as="geometry" />
        </mxCell>
        <mxCell id="PXjoyDLVkXk3ehVnjPj2-37" value="A" style="text;html=1;align=center;verticalAlign=middle;whiteSpace=wrap;rounded=0;" parent="1" vertex="1">
          <mxGeometry x="279" y="-360" width="30" height="30" as="geometry" />
        </mxCell>
        <mxCell id="PXjoyDLVkXk3ehVnjPj2-38" value="B" style="text;html=1;align=center;verticalAlign=middle;whiteSpace=wrap;rounded=0;" parent="1" vertex="1">
          <mxGeometry x="279" y="-330" width="30" height="30" as="geometry" />
        </mxCell>
        <mxCell id="PXjoyDLVkXk3ehVnjPj2-39" value="F" style="text;html=1;align=center;verticalAlign=middle;whiteSpace=wrap;rounded=0;" parent="1" vertex="1">
          <mxGeometry x="369" y="-345" width="30" height="30" as="geometry" />
        </mxCell>
        <mxCell id="PXjoyDLVkXk3ehVnjPj2-40" value="" style="endArrow=none;html=1;rounded=0;exitX=1;exitY=0.5;exitDx=0;exitDy=0;entryX=0;entryY=0.5;entryDx=0;entryDy=0;" parent="1" source="PXjoyDLVkXk3ehVnjPj2-39" target="PXjoyDLVkXk3ehVnjPj2-80" edge="1">
          <mxGeometry width="50" height="50" relative="1" as="geometry">
            <mxPoint x="440" y="50" as="sourcePoint" />
            <mxPoint x="590" y="-220" as="targetPoint" />
            <Array as="points">
              <mxPoint x="600" y="-330" />
              <mxPoint x="600" y="-220" />
              <mxPoint x="600" y="180" />
            </Array>
          </mxGeometry>
        </mxCell>
        <mxCell id="PXjoyDLVkXk3ehVnjPj2-41" value="int range 0 to 2" style="edgeLabel;html=1;align=center;verticalAlign=middle;resizable=0;points=[];" parent="PXjoyDLVkXk3ehVnjPj2-40" vertex="1" connectable="0">
          <mxGeometry x="-0.859" y="-3" relative="1" as="geometry">
            <mxPoint x="63" y="-3" as="offset" />
          </mxGeometry>
        </mxCell>
        <mxCell id="PXjoyDLVkXk3ehVnjPj2-42" value="" style="endArrow=none;html=1;rounded=0;entryX=0;entryY=0.5;entryDx=0;entryDy=0;exitX=1;exitY=0.5;exitDx=0;exitDy=0;" parent="1" source="PXjoyDLVkXk3ehVnjPj2-90" target="PXjoyDLVkXk3ehVnjPj2-33" edge="1">
          <mxGeometry width="50" height="50" relative="1" as="geometry">
            <mxPoint x="911" y="-140" as="sourcePoint" />
            <mxPoint x="871" y="190" as="targetPoint" />
            <Array as="points">
              <mxPoint x="891" y="230" />
            </Array>
          </mxGeometry>
        </mxCell>
        <mxCell id="PXjoyDLVkXk3ehVnjPj2-43" value="int range 0 to 12" style="edgeLabel;html=1;align=center;verticalAlign=middle;resizable=0;points=[];" parent="PXjoyDLVkXk3ehVnjPj2-42" vertex="1" connectable="0">
          <mxGeometry x="-0.3434" y="2" relative="1" as="geometry">
            <mxPoint x="16" y="2" as="offset" />
          </mxGeometry>
        </mxCell>
        <mxCell id="PXjoyDLVkXk3ehVnjPj2-44" value="Q(3:0)" style="text;html=1;align=center;verticalAlign=middle;whiteSpace=wrap;rounded=0;" parent="1" vertex="1">
          <mxGeometry x="1061" y="360" width="44" height="20" as="geometry" />
        </mxCell>
        <mxCell id="PXjoyDLVkXk3ehVnjPj2-45" value="" style="endArrow=none;html=1;rounded=0;exitX=1;exitY=0.5;exitDx=0;exitDy=0;" parent="1" source="PXjoyDLVkXk3ehVnjPj2-44" edge="1">
          <mxGeometry width="50" height="50" relative="1" as="geometry">
            <mxPoint x="1205" y="380" as="sourcePoint" />
            <mxPoint x="1155" y="370" as="targetPoint" />
          </mxGeometry>
        </mxCell>
        <mxCell id="PXjoyDLVkXk3ehVnjPj2-46" value="" style="rounded=0;whiteSpace=wrap;html=1;fillColor=none;" parent="1" vertex="1">
          <mxGeometry x="279" y="-10" width="120" height="230" as="geometry" />
        </mxCell>
        <mxCell id="PXjoyDLVkXk3ehVnjPj2-47" value="A0" style="text;html=1;align=center;verticalAlign=middle;whiteSpace=wrap;rounded=0;" parent="1" vertex="1">
          <mxGeometry x="279" width="40" height="20" as="geometry" />
        </mxCell>
        <mxCell id="PXjoyDLVkXk3ehVnjPj2-48" value="A1" style="text;html=1;align=center;verticalAlign=middle;whiteSpace=wrap;rounded=0;" parent="1" vertex="1">
          <mxGeometry x="279" y="20" width="40" height="20" as="geometry" />
        </mxCell>
        <mxCell id="PXjoyDLVkXk3ehVnjPj2-49" value="A2" style="text;html=1;align=center;verticalAlign=middle;whiteSpace=wrap;rounded=0;" parent="1" vertex="1">
          <mxGeometry x="279" y="40" width="40" height="20" as="geometry" />
        </mxCell>
        <mxCell id="PXjoyDLVkXk3ehVnjPj2-50" value="A3" style="text;html=1;align=center;verticalAlign=middle;whiteSpace=wrap;rounded=0;" parent="1" vertex="1">
          <mxGeometry x="279" y="60" width="40" height="20" as="geometry" />
        </mxCell>
        <mxCell id="PXjoyDLVkXk3ehVnjPj2-51" value="B0" style="text;html=1;align=center;verticalAlign=middle;whiteSpace=wrap;rounded=0;" parent="1" vertex="1">
          <mxGeometry x="279" y="130" width="40" height="20" as="geometry" />
        </mxCell>
        <mxCell id="PXjoyDLVkXk3ehVnjPj2-52" value="B1" style="text;html=1;align=center;verticalAlign=middle;whiteSpace=wrap;rounded=0;" parent="1" vertex="1">
          <mxGeometry x="279" y="150" width="40" height="20" as="geometry" />
        </mxCell>
        <mxCell id="PXjoyDLVkXk3ehVnjPj2-53" value="B2" style="text;html=1;align=center;verticalAlign=middle;whiteSpace=wrap;rounded=0;" parent="1" vertex="1">
          <mxGeometry x="279" y="170" width="40" height="20" as="geometry" />
        </mxCell>
        <mxCell id="PXjoyDLVkXk3ehVnjPj2-54" value="B3" style="text;html=1;align=center;verticalAlign=middle;whiteSpace=wrap;rounded=0;" parent="1" vertex="1">
          <mxGeometry x="279" y="190" width="40" height="20" as="geometry" />
        </mxCell>
        <mxCell id="PXjoyDLVkXk3ehVnjPj2-55" value="F(3:0)" style="text;html=1;align=center;verticalAlign=middle;whiteSpace=wrap;rounded=0;" parent="1" vertex="1">
          <mxGeometry x="359" y="95" width="40" height="20" as="geometry" />
        </mxCell>
        <mxCell id="PXjoyDLVkXk3ehVnjPj2-64" value="ANDx4" style="text;html=1;align=center;verticalAlign=middle;whiteSpace=wrap;rounded=0;" parent="1" vertex="1">
          <mxGeometry x="319" y="-10" width="40" height="20" as="geometry" />
        </mxCell>
        <mxCell id="PXjoyDLVkXk3ehVnjPj2-65" value="" style="rounded=0;whiteSpace=wrap;html=1;fillColor=none;" parent="1" vertex="1">
          <mxGeometry x="279" y="-290" width="120" height="100" as="geometry" />
        </mxCell>
        <mxCell id="PXjoyDLVkXk3ehVnjPj2-66" value="D0" style="text;html=1;align=center;verticalAlign=middle;whiteSpace=wrap;rounded=0;" parent="1" vertex="1">
          <mxGeometry x="279" y="-280" width="40" height="20" as="geometry" />
        </mxCell>
        <mxCell id="PXjoyDLVkXk3ehVnjPj2-67" value="D1" style="text;html=1;align=center;verticalAlign=middle;whiteSpace=wrap;rounded=0;" parent="1" vertex="1">
          <mxGeometry x="279" y="-260" width="40" height="20" as="geometry" />
        </mxCell>
        <mxCell id="PXjoyDLVkXk3ehVnjPj2-68" value="D2" style="text;html=1;align=center;verticalAlign=middle;whiteSpace=wrap;rounded=0;" parent="1" vertex="1">
          <mxGeometry x="279" y="-240" width="40" height="20" as="geometry" />
        </mxCell>
        <mxCell id="PXjoyDLVkXk3ehVnjPj2-69" value="D3" style="text;html=1;align=center;verticalAlign=middle;whiteSpace=wrap;rounded=0;" parent="1" vertex="1">
          <mxGeometry x="279" y="-220" width="40" height="20" as="geometry" />
        </mxCell>
        <mxCell id="PXjoyDLVkXk3ehVnjPj2-70" value="CNT01" style="text;html=1;align=center;verticalAlign=middle;whiteSpace=wrap;rounded=0;" parent="1" vertex="1">
          <mxGeometry x="319" y="-290" width="40" height="20" as="geometry" />
        </mxCell>
        <mxCell id="PXjoyDLVkXk3ehVnjPj2-71" value="F" style="text;html=1;align=center;verticalAlign=middle;whiteSpace=wrap;rounded=0;" parent="1" vertex="1">
          <mxGeometry x="359" y="-250" width="40" height="20" as="geometry" />
        </mxCell>
        <mxCell id="PXjoyDLVkXk3ehVnjPj2-76" value="" style="endArrow=none;html=1;rounded=0;exitX=1;exitY=0.5;exitDx=0;exitDy=0;entryX=0;entryY=0.5;entryDx=0;entryDy=0;" parent="1" source="PXjoyDLVkXk3ehVnjPj2-71" target="PXjoyDLVkXk3ehVnjPj2-81" edge="1">
          <mxGeometry width="50" height="50" relative="1" as="geometry">
            <mxPoint x="530" y="80" as="sourcePoint" />
            <mxPoint x="590" y="-140" as="targetPoint" />
            <Array as="points">
              <mxPoint x="590" y="-240" />
              <mxPoint x="590" y="-130" />
              <mxPoint x="590" y="200" />
            </Array>
          </mxGeometry>
        </mxCell>
        <mxCell id="PXjoyDLVkXk3ehVnjPj2-77" value="int range 0 to 2" style="edgeLabel;html=1;align=center;verticalAlign=middle;resizable=0;points=[];" parent="PXjoyDLVkXk3ehVnjPj2-76" vertex="1" connectable="0">
          <mxGeometry x="-0.8778" relative="1" as="geometry">
            <mxPoint x="74" as="offset" />
          </mxGeometry>
        </mxCell>
        <mxCell id="PXjoyDLVkXk3ehVnjPj2-78" value="" style="rounded=0;whiteSpace=wrap;html=1;fillColor=none;" parent="1" vertex="1">
          <mxGeometry x="279" y="-180" width="120" height="160" as="geometry" />
        </mxCell>
        <mxCell id="PXjoyDLVkXk3ehVnjPj2-79" value="" style="rounded=0;whiteSpace=wrap;html=1;fillColor=none;" parent="1" vertex="1">
          <mxGeometry x="761" y="150" width="120" height="160" as="geometry" />
        </mxCell>
        <mxCell id="PXjoyDLVkXk3ehVnjPj2-80" value="D0" style="text;html=1;align=center;verticalAlign=middle;whiteSpace=wrap;rounded=0;" parent="1" vertex="1">
          <mxGeometry x="761" y="170" width="40" height="20" as="geometry" />
        </mxCell>
        <mxCell id="PXjoyDLVkXk3ehVnjPj2-81" value="D1" style="text;html=1;align=center;verticalAlign=middle;whiteSpace=wrap;rounded=0;" parent="1" vertex="1">
          <mxGeometry x="761" y="190" width="40" height="20" as="geometry" />
        </mxCell>
        <mxCell id="PXjoyDLVkXk3ehVnjPj2-82" value="D2" style="text;html=1;align=center;verticalAlign=middle;whiteSpace=wrap;rounded=0;" parent="1" vertex="1">
          <mxGeometry x="761" y="210" width="40" height="20" as="geometry" />
        </mxCell>
        <mxCell id="PXjoyDLVkXk3ehVnjPj2-83" value="" style="endArrow=none;html=1;rounded=0;entryX=0;entryY=0.5;entryDx=0;entryDy=0;exitX=1;exitY=0.5;exitDx=0;exitDy=0;" parent="1" source="PXjoyDLVkXk3ehVnjPj2-78" target="PXjoyDLVkXk3ehVnjPj2-82" edge="1">
          <mxGeometry width="50" height="50" relative="1" as="geometry">
            <mxPoint x="510" y="-40" as="sourcePoint" />
            <mxPoint x="560" y="-90" as="targetPoint" />
            <Array as="points">
              <mxPoint x="580" y="-100" />
              <mxPoint x="580" y="220" />
            </Array>
          </mxGeometry>
        </mxCell>
        <mxCell id="PXjoyDLVkXk3ehVnjPj2-84" value="int range 0 to 12" style="edgeLabel;html=1;align=center;verticalAlign=middle;resizable=0;points=[];" parent="PXjoyDLVkXk3ehVnjPj2-83" vertex="1" connectable="0">
          <mxGeometry x="-0.798" relative="1" as="geometry">
            <mxPoint x="56" y="1" as="offset" />
          </mxGeometry>
        </mxCell>
        <mxCell id="PXjoyDLVkXk3ehVnjPj2-85" value="F" style="text;html=1;align=center;verticalAlign=middle;whiteSpace=wrap;rounded=0;" parent="1" vertex="1">
          <mxGeometry x="359" y="-115" width="40" height="20" as="geometry" />
        </mxCell>
        <mxCell id="PXjoyDLVkXk3ehVnjPj2-86" value="Y0" style="text;html=1;align=center;verticalAlign=middle;whiteSpace=wrap;rounded=0;" parent="1" vertex="1">
          <mxGeometry x="761" y="240" width="40" height="20" as="geometry" />
        </mxCell>
        <mxCell id="PXjoyDLVkXk3ehVnjPj2-87" value="Y1" style="text;html=1;align=center;verticalAlign=middle;whiteSpace=wrap;rounded=0;" parent="1" vertex="1">
          <mxGeometry x="761" y="260" width="40" height="20" as="geometry" />
        </mxCell>
        <mxCell id="PXjoyDLVkXk3ehVnjPj2-88" value="Y2" style="text;html=1;align=center;verticalAlign=middle;whiteSpace=wrap;rounded=0;" parent="1" vertex="1">
          <mxGeometry x="761" y="280" width="40" height="20" as="geometry" />
        </mxCell>
        <mxCell id="PXjoyDLVkXk3ehVnjPj2-89" value="CUST_MX" style="text;html=1;align=center;verticalAlign=middle;whiteSpace=wrap;rounded=0;" parent="1" vertex="1">
          <mxGeometry x="791" y="150" width="60" height="20" as="geometry" />
        </mxCell>
        <mxCell id="PXjoyDLVkXk3ehVnjPj2-90" value="F" style="text;html=1;align=center;verticalAlign=middle;whiteSpace=wrap;rounded=0;" parent="1" vertex="1">
          <mxGeometry x="841" y="220" width="40" height="20" as="geometry" />
        </mxCell>
        <mxCell id="PXjoyDLVkXk3ehVnjPj2-91" style="edgeStyle=none;rounded=0;orthogonalLoop=1;jettySize=auto;html=1;exitX=0;exitY=0.5;exitDx=0;exitDy=0;" parent="1" source="PXjoyDLVkXk3ehVnjPj2-90" target="PXjoyDLVkXk3ehVnjPj2-90" edge="1">
          <mxGeometry relative="1" as="geometry" />
        </mxCell>
        <mxCell id="PXjoyDLVkXk3ehVnjPj2-92" value="" style="endArrow=none;html=1;rounded=0;entryX=0;entryY=0.5;entryDx=0;entryDy=0;startArrow=oval;startFill=1;" parent="1" target="PXjoyDLVkXk3ehVnjPj2-86" edge="1">
          <mxGeometry width="50" height="50" relative="1" as="geometry">
            <mxPoint x="730" y="510" as="sourcePoint" />
            <mxPoint x="620" y="250" as="targetPoint" />
            <Array as="points">
              <mxPoint x="730" y="250" />
            </Array>
          </mxGeometry>
        </mxCell>
        <mxCell id="PXjoyDLVkXk3ehVnjPj2-93" value="" style="endArrow=none;html=1;rounded=0;startArrow=oval;startFill=1;entryX=0;entryY=0.5;entryDx=0;entryDy=0;" parent="1" target="PXjoyDLVkXk3ehVnjPj2-87" edge="1">
          <mxGeometry width="50" height="50" relative="1" as="geometry">
            <mxPoint x="740" y="530" as="sourcePoint" />
            <mxPoint x="660" y="270" as="targetPoint" />
            <Array as="points">
              <mxPoint x="740" y="270" />
            </Array>
          </mxGeometry>
        </mxCell>
        <mxCell id="PXjoyDLVkXk3ehVnjPj2-94" value="" style="endArrow=none;html=1;rounded=0;entryX=0;entryY=0.5;entryDx=0;entryDy=0;startArrow=oval;startFill=1;" parent="1" target="PXjoyDLVkXk3ehVnjPj2-88" edge="1">
          <mxGeometry width="50" height="50" relative="1" as="geometry">
            <mxPoint x="750" y="550" as="sourcePoint" />
            <mxPoint x="726" y="360" as="targetPoint" />
            <Array as="points">
              <mxPoint x="750" y="290" />
            </Array>
          </mxGeometry>
        </mxCell>
        <mxCell id="PXjoyDLVkXk3ehVnjPj2-95" value="X1" style="text;html=1;align=center;verticalAlign=middle;whiteSpace=wrap;rounded=0;" parent="1" vertex="1">
          <mxGeometry x="279" y="-155" width="40" height="20" as="geometry" />
        </mxCell>
        <mxCell id="PXjoyDLVkXk3ehVnjPj2-96" value="X2" style="text;html=1;align=center;verticalAlign=middle;whiteSpace=wrap;rounded=0;" parent="1" vertex="1">
          <mxGeometry x="279" y="-135" width="40" height="20" as="geometry" />
        </mxCell>
        <mxCell id="PXjoyDLVkXk3ehVnjPj2-97" value="Z0" style="text;html=1;align=center;verticalAlign=middle;whiteSpace=wrap;rounded=0;" parent="1" vertex="1">
          <mxGeometry x="279" y="-109" width="40" height="20" as="geometry" />
        </mxCell>
        <mxCell id="PXjoyDLVkXk3ehVnjPj2-98" value="Z1" style="text;html=1;align=center;verticalAlign=middle;whiteSpace=wrap;rounded=0;" parent="1" vertex="1">
          <mxGeometry x="279" y="-90" width="40" height="20" as="geometry" />
        </mxCell>
        <mxCell id="PXjoyDLVkXk3ehVnjPj2-99" value="Z2" style="text;html=1;align=center;verticalAlign=middle;whiteSpace=wrap;rounded=0;" parent="1" vertex="1">
          <mxGeometry x="279" y="-70" width="40" height="20" as="geometry" />
        </mxCell>
        <mxCell id="PXjoyDLVkXk3ehVnjPj2-100" value="Z3" style="text;html=1;align=center;verticalAlign=middle;whiteSpace=wrap;rounded=0;" parent="1" vertex="1">
          <mxGeometry x="279" y="-50" width="40" height="20" as="geometry" />
        </mxCell>
        <mxCell id="PXjoyDLVkXk3ehVnjPj2-107" value="X0" style="text;html=1;align=center;verticalAlign=middle;whiteSpace=wrap;rounded=0;" parent="1" vertex="1">
          <mxGeometry x="279" y="-175" width="40" height="20" as="geometry" />
        </mxCell>
        <mxCell id="PXjoyDLVkXk3ehVnjPj2-109" value="RG" style="text;html=1;align=center;verticalAlign=middle;whiteSpace=wrap;rounded=0;" parent="1" vertex="1">
          <mxGeometry x="1015" y="80" width="60" height="20" as="geometry" />
        </mxCell>
        <mxCell id="PXjoyDLVkXk3ehVnjPj2-110" value="CUST_SM" style="text;html=1;align=center;verticalAlign=middle;whiteSpace=wrap;rounded=0;" parent="1" vertex="1">
          <mxGeometry x="319" y="-180" width="40" height="20" as="geometry" />
        </mxCell>
        <mxCell id="PXjoyDLVkXk3ehVnjPj2-111" value="Оп. 3" style="text;html=1;align=center;verticalAlign=middle;resizable=0;points=[];autosize=1;strokeColor=none;fillColor=none;" parent="1" vertex="1">
          <mxGeometry x="399" y="-330" width="50" height="30" as="geometry" />
        </mxCell>
        <mxCell id="PXjoyDLVkXk3ehVnjPj2-112" value="Оп. 1" style="text;html=1;align=center;verticalAlign=middle;resizable=0;points=[];autosize=1;strokeColor=none;fillColor=none;" parent="1" vertex="1">
          <mxGeometry x="1120" y="80" width="50" height="30" as="geometry" />
        </mxCell>
        <mxCell id="PXjoyDLVkXk3ehVnjPj2-113" value="Оп. 2" style="text;html=1;align=center;verticalAlign=middle;resizable=0;points=[];autosize=1;strokeColor=none;fillColor=none;" parent="1" vertex="1">
          <mxGeometry x="399" y="300" width="50" height="30" as="geometry" />
        </mxCell>
        <mxCell id="PXjoyDLVkXk3ehVnjPj2-114" value="Оп. 4" style="text;html=1;align=center;verticalAlign=middle;resizable=0;points=[];autosize=1;strokeColor=none;fillColor=none;" parent="1" vertex="1">
          <mxGeometry x="1120" y="105" width="50" height="30" as="geometry" />
        </mxCell>
        <mxCell id="PXjoyDLVkXk3ehVnjPj2-115" value="Оп. 7" style="text;html=1;align=center;verticalAlign=middle;resizable=0;points=[];autosize=1;strokeColor=none;fillColor=none;" parent="1" vertex="1">
          <mxGeometry x="399" y="190" width="50" height="30" as="geometry" />
        </mxCell>
        <mxCell id="PXjoyDLVkXk3ehVnjPj2-116" value="Оп. 6" style="text;html=1;align=center;verticalAlign=middle;resizable=0;points=[];autosize=1;strokeColor=none;fillColor=none;" parent="1" vertex="1">
          <mxGeometry x="399" y="-220" width="50" height="30" as="geometry" />
        </mxCell>
        <mxCell id="PXjoyDLVkXk3ehVnjPj2-117" value="Оп. 8" style="text;html=1;align=center;verticalAlign=middle;resizable=0;points=[];autosize=1;strokeColor=none;fillColor=none;" parent="1" vertex="1">
          <mxGeometry x="399" y="-50" width="50" height="30" as="geometry" />
        </mxCell>
        <mxCell id="PXjoyDLVkXk3ehVnjPj2-118" value="" style="rounded=0;whiteSpace=wrap;html=1;fillColor=none;" parent="1" vertex="1">
          <mxGeometry x="279" y="230" width="120" height="100" as="geometry" />
        </mxCell>
        <mxCell id="PXjoyDLVkXk3ehVnjPj2-119" value="D0" style="text;html=1;align=center;verticalAlign=middle;whiteSpace=wrap;rounded=0;" parent="1" vertex="1">
          <mxGeometry x="279" y="240" width="40" height="20" as="geometry" />
        </mxCell>
        <mxCell id="PXjoyDLVkXk3ehVnjPj2-120" value="D1" style="text;html=1;align=center;verticalAlign=middle;whiteSpace=wrap;rounded=0;" parent="1" vertex="1">
          <mxGeometry x="279" y="260" width="40" height="20" as="geometry" />
        </mxCell>
        <mxCell id="PXjoyDLVkXk3ehVnjPj2-121" value="D2" style="text;html=1;align=center;verticalAlign=middle;whiteSpace=wrap;rounded=0;" parent="1" vertex="1">
          <mxGeometry x="279" y="280" width="40" height="20" as="geometry" />
        </mxCell>
        <mxCell id="PXjoyDLVkXk3ehVnjPj2-122" value="D3" style="text;html=1;align=center;verticalAlign=middle;whiteSpace=wrap;rounded=0;" parent="1" vertex="1">
          <mxGeometry x="279" y="300" width="40" height="20" as="geometry" />
        </mxCell>
        <mxCell id="PXjoyDLVkXk3ehVnjPj2-131" value="F(3:0)" style="text;html=1;align=center;verticalAlign=middle;whiteSpace=wrap;rounded=0;" parent="1" vertex="1">
          <mxGeometry x="359" y="270" width="40" height="20" as="geometry" />
        </mxCell>
        <mxCell id="PXjoyDLVkXk3ehVnjPj2-132" value="BCD2431" style="text;html=1;align=center;verticalAlign=middle;whiteSpace=wrap;rounded=0;" parent="1" vertex="1">
          <mxGeometry x="319" y="230" width="40" height="20" as="geometry" />
        </mxCell>
        <mxCell id="PXjoyDLVkXk3ehVnjPj2-133" value="" style="rounded=0;whiteSpace=wrap;html=1;fillColor=none;" parent="1" vertex="1">
          <mxGeometry x="590" y="280" width="120" height="160" as="geometry" />
        </mxCell>
        <mxCell id="PXjoyDLVkXk3ehVnjPj2-134" value="D0" style="text;html=1;align=center;verticalAlign=middle;whiteSpace=wrap;rounded=0;" parent="1" vertex="1">
          <mxGeometry x="590" y="300" width="40" height="20" as="geometry" />
        </mxCell>
        <mxCell id="PXjoyDLVkXk3ehVnjPj2-135" value="D1" style="text;html=1;align=center;verticalAlign=middle;whiteSpace=wrap;rounded=0;" parent="1" vertex="1">
          <mxGeometry x="590" y="320" width="40" height="20" as="geometry" />
        </mxCell>
        <mxCell id="PXjoyDLVkXk3ehVnjPj2-136" value="Y0" style="text;html=1;align=center;verticalAlign=middle;whiteSpace=wrap;rounded=0;" parent="1" vertex="1">
          <mxGeometry x="590" y="370" width="40" height="20" as="geometry" />
        </mxCell>
        <mxCell id="PXjoyDLVkXk3ehVnjPj2-137" value="Y1" style="text;html=1;align=center;verticalAlign=middle;whiteSpace=wrap;rounded=0;" parent="1" vertex="1">
          <mxGeometry x="590" y="390" width="40" height="20" as="geometry" />
        </mxCell>
        <mxCell id="PXjoyDLVkXk3ehVnjPj2-138" value="Y2" style="text;html=1;align=center;verticalAlign=middle;whiteSpace=wrap;rounded=0;" parent="1" vertex="1">
          <mxGeometry x="590" y="410" width="40" height="20" as="geometry" />
        </mxCell>
        <mxCell id="PXjoyDLVkXk3ehVnjPj2-139" value="LOAD_MX" style="text;html=1;align=center;verticalAlign=middle;whiteSpace=wrap;rounded=0;" parent="1" vertex="1">
          <mxGeometry x="620" y="280" width="60" height="20" as="geometry" />
        </mxCell>
        <mxCell id="PXjoyDLVkXk3ehVnjPj2-140" value="F(3:0)" style="text;html=1;align=center;verticalAlign=middle;whiteSpace=wrap;rounded=0;" parent="1" vertex="1">
          <mxGeometry x="670" y="350" width="40" height="20" as="geometry" />
        </mxCell>
        <mxCell id="PXjoyDLVkXk3ehVnjPj2-141" style="edgeStyle=none;rounded=0;orthogonalLoop=1;jettySize=auto;html=1;exitX=0;exitY=0.5;exitDx=0;exitDy=0;" parent="1" source="PXjoyDLVkXk3ehVnjPj2-140" target="PXjoyDLVkXk3ehVnjPj2-140" edge="1">
          <mxGeometry relative="1" as="geometry" />
        </mxCell>
        <mxCell id="PXjoyDLVkXk3ehVnjPj2-142" value="" style="endArrow=none;html=1;rounded=0;exitX=1;exitY=0.5;exitDx=0;exitDy=0;entryX=0;entryY=0.5;entryDx=0;entryDy=0;" parent="1" source="PXjoyDLVkXk3ehVnjPj2-55" target="PXjoyDLVkXk3ehVnjPj2-134" edge="1">
          <mxGeometry width="50" height="50" relative="1" as="geometry">
            <mxPoint x="480" y="240" as="sourcePoint" />
            <mxPoint x="530" y="190" as="targetPoint" />
            <Array as="points">
              <mxPoint x="500" y="105" />
              <mxPoint x="500" y="130" />
              <mxPoint x="500" y="310" />
            </Array>
          </mxGeometry>
        </mxCell>
        <mxCell id="PXjoyDLVkXk3ehVnjPj2-143" value="bit_vector(3 downto 0)" style="edgeLabel;html=1;align=center;verticalAlign=middle;resizable=0;points=[];" parent="PXjoyDLVkXk3ehVnjPj2-142" vertex="1" connectable="0">
          <mxGeometry x="0.6804" y="1" relative="1" as="geometry">
            <mxPoint x="-7" y="11" as="offset" />
          </mxGeometry>
        </mxCell>
        <mxCell id="PXjoyDLVkXk3ehVnjPj2-144" value="" style="endArrow=none;html=1;rounded=0;exitX=1;exitY=0.5;exitDx=0;exitDy=0;entryX=0;entryY=0.5;entryDx=0;entryDy=0;" parent="1" source="PXjoyDLVkXk3ehVnjPj2-131" target="PXjoyDLVkXk3ehVnjPj2-135" edge="1">
          <mxGeometry width="50" height="50" relative="1" as="geometry">
            <mxPoint x="460" y="280" as="sourcePoint" />
            <mxPoint x="510" y="230" as="targetPoint" />
            <Array as="points">
              <mxPoint x="450" y="280" />
              <mxPoint x="450" y="330" />
            </Array>
          </mxGeometry>
        </mxCell>
        <mxCell id="PXjoyDLVkXk3ehVnjPj2-145" value="bit_vector(3 downto 0)" style="edgeLabel;html=1;align=center;verticalAlign=middle;resizable=0;points=[];" parent="PXjoyDLVkXk3ehVnjPj2-144" vertex="1" connectable="0">
          <mxGeometry x="-0.5691" y="-2" relative="1" as="geometry">
            <mxPoint x="25" y="-197" as="offset" />
          </mxGeometry>
        </mxCell>
        <mxCell id="PXjoyDLVkXk3ehVnjPj2-146" value="" style="endArrow=none;html=1;rounded=0;entryX=0;entryY=0.5;entryDx=0;entryDy=0;startArrow=oval;startFill=1;" parent="1" target="PXjoyDLVkXk3ehVnjPj2-138" edge="1">
          <mxGeometry width="50" height="50" relative="1" as="geometry">
            <mxPoint x="580" y="550" as="sourcePoint" />
            <mxPoint x="560" y="420" as="targetPoint" />
            <Array as="points">
              <mxPoint x="580" y="420" />
            </Array>
          </mxGeometry>
        </mxCell>
        <mxCell id="PXjoyDLVkXk3ehVnjPj2-147" value="" style="endArrow=none;html=1;rounded=0;entryX=0;entryY=0.5;entryDx=0;entryDy=0;startArrow=oval;startFill=1;" parent="1" target="PXjoyDLVkXk3ehVnjPj2-137" edge="1">
          <mxGeometry width="50" height="50" relative="1" as="geometry">
            <mxPoint x="570" y="530" as="sourcePoint" />
            <mxPoint x="490" y="400" as="targetPoint" />
            <Array as="points">
              <mxPoint x="570" y="400" />
            </Array>
          </mxGeometry>
        </mxCell>
        <mxCell id="PXjoyDLVkXk3ehVnjPj2-148" value="" style="endArrow=none;html=1;rounded=0;entryX=0;entryY=0.5;entryDx=0;entryDy=0;startArrow=oval;startFill=1;" parent="1" target="PXjoyDLVkXk3ehVnjPj2-136" edge="1">
          <mxGeometry width="50" height="50" relative="1" as="geometry">
            <mxPoint x="560" y="510" as="sourcePoint" />
            <mxPoint x="500" y="400" as="targetPoint" />
            <Array as="points">
              <mxPoint x="560" y="380" />
            </Array>
          </mxGeometry>
        </mxCell>
        <mxCell id="PXjoyDLVkXk3ehVnjPj2-149" value="" style="endArrow=none;html=1;rounded=0;entryX=0;entryY=0.5;entryDx=0;entryDy=0;" parent="1" target="PXjoyDLVkXk3ehVnjPj2-31" edge="1">
          <mxGeometry width="50" height="50" relative="1" as="geometry">
            <mxPoint x="710" y="360" as="sourcePoint" />
            <mxPoint x="910" y="450" as="targetPoint" />
            <Array as="points">
              <mxPoint x="770" y="360" />
              <mxPoint x="770" y="400" />
            </Array>
          </mxGeometry>
        </mxCell>
        <mxCell id="PXjoyDLVkXk3ehVnjPj2-150" value="bit_vector(3 downto 0)" style="edgeLabel;html=1;align=center;verticalAlign=middle;resizable=0;points=[];" parent="PXjoyDLVkXk3ehVnjPj2-149" vertex="1" connectable="0">
          <mxGeometry x="0.0494" relative="1" as="geometry">
            <mxPoint x="26" as="offset" />
          </mxGeometry>
        </mxCell>
        <mxCell id="PXjoyDLVkXk3ehVnjPj2-151" value="OP3_SUM" style="text;html=1;align=center;verticalAlign=middle;whiteSpace=wrap;rounded=0;" parent="1" vertex="1">
          <mxGeometry x="319" y="-320" width="40" height="20" as="geometry" />
        </mxCell>
        <mxCell id="PXjoyDLVkXk3ehVnjPj2-152" value="OP6_CNT01" style="text;html=1;align=center;verticalAlign=middle;whiteSpace=wrap;rounded=0;" parent="1" vertex="1">
          <mxGeometry x="319" y="-210" width="40" height="20" as="geometry" />
        </mxCell>
        <mxCell id="PXjoyDLVkXk3ehVnjPj2-153" value="OP8_SM" style="text;html=1;align=center;verticalAlign=middle;whiteSpace=wrap;rounded=0;" parent="1" vertex="1">
          <mxGeometry x="319" y="-40" width="40" height="20" as="geometry" />
        </mxCell>
        <mxCell id="PXjoyDLVkXk3ehVnjPj2-154" value="OP7_ANDx4" style="text;html=1;align=center;verticalAlign=middle;whiteSpace=wrap;rounded=0;" parent="1" vertex="1">
          <mxGeometry x="319" y="200" width="40" height="20" as="geometry" />
        </mxCell>
        <mxCell id="PXjoyDLVkXk3ehVnjPj2-155" value="OP2_BCD" style="text;html=1;align=center;verticalAlign=middle;whiteSpace=wrap;rounded=0;" parent="1" vertex="1">
          <mxGeometry x="319" y="310" width="40" height="20" as="geometry" />
        </mxCell>
        <mxCell id="PXjoyDLVkXk3ehVnjPj2-156" value="OP2_5_7_MX" style="text;html=1;align=center;verticalAlign=middle;whiteSpace=wrap;rounded=0;" parent="1" vertex="1">
          <mxGeometry x="620" y="420" width="60" height="20" as="geometry" />
        </mxCell>
        <mxCell id="PXjoyDLVkXk3ehVnjPj2-157" value="OP3_6_8_MX" style="text;html=1;align=center;verticalAlign=middle;whiteSpace=wrap;rounded=0;" parent="1" vertex="1">
          <mxGeometry x="791" y="290" width="60" height="20" as="geometry" />
        </mxCell>
        <mxCell id="PXjoyDLVkXk3ehVnjPj2-158" value="MFRG" style="text;html=1;align=center;verticalAlign=middle;whiteSpace=wrap;rounded=0;" parent="1" vertex="1">
          <mxGeometry x="1015" y="660" width="60" height="20" as="geometry" />
        </mxCell>
        <mxCell id="PXjoyDLVkXk3ehVnjPj2-159" value="" style="endArrow=none;html=1;rounded=0;entryX=0;entryY=0.25;entryDx=0;entryDy=0;startArrow=oval;startFill=1;" parent="1" edge="1">
          <mxGeometry width="50" height="50" relative="1" as="geometry">
            <mxPoint x="130" y="100" as="sourcePoint" />
            <mxPoint x="279" y="-345" as="targetPoint" />
            <Array as="points">
              <mxPoint x="130" y="-345" />
            </Array>
          </mxGeometry>
        </mxCell>
        <mxCell id="PXjoyDLVkXk3ehVnjPj2-160" value="" style="endArrow=none;html=1;rounded=0;entryX=0;entryY=0.5;entryDx=0;entryDy=0;startArrow=oval;startFill=1;" parent="1" edge="1">
          <mxGeometry width="50" height="50" relative="1" as="geometry">
            <mxPoint x="130" y="100" as="sourcePoint" />
            <mxPoint x="279" y="70" as="targetPoint" />
            <Array as="points">
              <mxPoint x="260" y="100" />
              <mxPoint x="260" y="70" />
            </Array>
          </mxGeometry>
        </mxCell>
        <mxCell id="PXjoyDLVkXk3ehVnjPj2-161" value="" style="endArrow=none;html=1;rounded=0;exitX=1;exitY=0.5;exitDx=0;exitDy=0;entryX=0;entryY=0.5;entryDx=0;entryDy=0;" parent="1" edge="1">
          <mxGeometry width="50" height="50" relative="1" as="geometry">
            <mxPoint x="120" y="200" as="sourcePoint" />
            <mxPoint x="279" y="200" as="targetPoint" />
          </mxGeometry>
        </mxCell>
        <mxCell id="PXjoyDLVkXk3ehVnjPj2-168" value="" style="endArrow=none;html=1;rounded=0;entryX=0;entryY=0.5;entryDx=0;entryDy=0;" parent="1" edge="1">
          <mxGeometry width="50" height="50" relative="1" as="geometry">
            <mxPoint x="130" y="100" as="sourcePoint" />
            <mxPoint x="279" y="310" as="targetPoint" />
            <Array as="points">
              <mxPoint x="130" y="310" />
            </Array>
          </mxGeometry>
        </mxCell>
        <mxCell id="PXjoyDLVkXk3ehVnjPj2-169" value="" style="endArrow=none;html=1;rounded=0;entryX=0;entryY=0.5;entryDx=0;entryDy=0;" parent="1" edge="1">
          <mxGeometry width="50" height="50" relative="1" as="geometry">
            <mxPoint x="140" y="80" as="sourcePoint" />
            <mxPoint x="279" y="290" as="targetPoint" />
            <Array as="points">
              <mxPoint x="140" y="290" />
            </Array>
          </mxGeometry>
        </mxCell>
        <mxCell id="PXjoyDLVkXk3ehVnjPj2-170" value="" style="endArrow=none;html=1;rounded=0;entryX=0;entryY=0.5;entryDx=0;entryDy=0;" parent="1" edge="1">
          <mxGeometry width="50" height="50" relative="1" as="geometry">
            <mxPoint x="150" y="60" as="sourcePoint" />
            <mxPoint x="279" y="270" as="targetPoint" />
            <Array as="points">
              <mxPoint x="150" y="270" />
            </Array>
          </mxGeometry>
        </mxCell>
        <mxCell id="PXjoyDLVkXk3ehVnjPj2-171" value="" style="endArrow=none;html=1;rounded=0;entryX=0;entryY=0.5;entryDx=0;entryDy=0;" parent="1" edge="1">
          <mxGeometry width="50" height="50" relative="1" as="geometry">
            <mxPoint x="160" y="40" as="sourcePoint" />
            <mxPoint x="279" y="250" as="targetPoint" />
            <Array as="points">
              <mxPoint x="160" y="250" />
            </Array>
          </mxGeometry>
        </mxCell>
        <mxCell id="PXjoyDLVkXk3ehVnjPj2-172" value="" style="endArrow=none;html=1;rounded=0;entryX=0;entryY=0.5;entryDx=0;entryDy=0;startArrow=oval;startFill=1;" parent="1" edge="1">
          <mxGeometry width="50" height="50" relative="1" as="geometry">
            <mxPoint x="160" y="40" as="sourcePoint" />
            <mxPoint x="279" y="10" as="targetPoint" />
            <Array as="points">
              <mxPoint x="230" y="40" />
              <mxPoint x="230" y="10" />
            </Array>
          </mxGeometry>
        </mxCell>
        <mxCell id="PXjoyDLVkXk3ehVnjPj2-173" value="" style="endArrow=none;html=1;rounded=0;entryX=0;entryY=0.5;entryDx=0;entryDy=0;startArrow=oval;startFill=1;" parent="1" edge="1">
          <mxGeometry width="50" height="50" relative="1" as="geometry">
            <mxPoint x="150" y="60" as="sourcePoint" />
            <mxPoint x="279" y="30" as="targetPoint" />
            <Array as="points">
              <mxPoint x="240" y="60" />
              <mxPoint x="240" y="30" />
            </Array>
          </mxGeometry>
        </mxCell>
        <mxCell id="PXjoyDLVkXk3ehVnjPj2-174" value="" style="endArrow=none;html=1;rounded=0;entryX=0;entryY=0.5;entryDx=0;entryDy=0;startArrow=oval;startFill=1;" parent="1" edge="1">
          <mxGeometry width="50" height="50" relative="1" as="geometry">
            <mxPoint x="140" y="80" as="sourcePoint" />
            <mxPoint x="279" y="50" as="targetPoint" />
            <Array as="points">
              <mxPoint x="250" y="80" />
              <mxPoint x="250" y="50" />
            </Array>
          </mxGeometry>
        </mxCell>
        <mxCell id="PXjoyDLVkXk3ehVnjPj2-175" value="" style="endArrow=none;html=1;rounded=0;entryX=0;entryY=0.5;entryDx=0;entryDy=0;startArrow=oval;startFill=1;" parent="1" edge="1">
          <mxGeometry width="50" height="50" relative="1" as="geometry">
            <mxPoint x="130" y="100" as="sourcePoint" />
            <mxPoint x="279" y="70" as="targetPoint" />
            <Array as="points">
              <mxPoint x="260" y="100" />
              <mxPoint x="260" y="70" />
            </Array>
          </mxGeometry>
        </mxCell>
        <mxCell id="PXjoyDLVkXk3ehVnjPj2-176" value="" style="endArrow=none;html=1;rounded=0;" parent="1" edge="1">
          <mxGeometry width="50" height="50" relative="1" as="geometry">
            <mxPoint x="120" y="40" as="sourcePoint" />
            <mxPoint x="160" y="40" as="targetPoint" />
          </mxGeometry>
        </mxCell>
        <mxCell id="PXjoyDLVkXk3ehVnjPj2-177" value="" style="endArrow=none;html=1;rounded=0;entryX=1;entryY=0.5;entryDx=0;entryDy=0;" parent="1" edge="1">
          <mxGeometry width="50" height="50" relative="1" as="geometry">
            <mxPoint x="150" y="60" as="sourcePoint" />
            <mxPoint x="120" y="60" as="targetPoint" />
            <Array as="points">
              <mxPoint x="130" y="60" />
            </Array>
          </mxGeometry>
        </mxCell>
        <mxCell id="PXjoyDLVkXk3ehVnjPj2-178" value="" style="endArrow=none;html=1;rounded=0;exitX=1;exitY=0.5;exitDx=0;exitDy=0;" parent="1" edge="1">
          <mxGeometry width="50" height="50" relative="1" as="geometry">
            <mxPoint x="120" y="80" as="sourcePoint" />
            <mxPoint x="140" y="80" as="targetPoint" />
          </mxGeometry>
        </mxCell>
        <mxCell id="PXjoyDLVkXk3ehVnjPj2-179" value="" style="endArrow=none;html=1;rounded=0;entryX=0;entryY=0.5;entryDx=0;entryDy=0;startArrow=oval;startFill=1;" parent="1" edge="1">
          <mxGeometry width="50" height="50" relative="1" as="geometry">
            <mxPoint x="160" y="40" as="sourcePoint" />
            <mxPoint x="279" y="-270" as="targetPoint" />
            <Array as="points">
              <mxPoint x="160" y="-270" />
            </Array>
          </mxGeometry>
        </mxCell>
        <mxCell id="PXjoyDLVkXk3ehVnjPj2-180" value="" style="endArrow=none;html=1;rounded=0;startArrow=oval;startFill=1;entryX=0;entryY=0.5;entryDx=0;entryDy=0;" parent="1" target="PXjoyDLVkXk3ehVnjPj2-67" edge="1">
          <mxGeometry width="50" height="50" relative="1" as="geometry">
            <mxPoint x="180" y="140" as="sourcePoint" />
            <mxPoint x="240" y="-250" as="targetPoint" />
            <Array as="points">
              <mxPoint x="180" y="-250" />
            </Array>
          </mxGeometry>
        </mxCell>
        <mxCell id="PXjoyDLVkXk3ehVnjPj2-184" value="" style="endArrow=none;html=1;rounded=0;entryX=0;entryY=0.5;entryDx=0;entryDy=0;" parent="1" target="PXjoyDLVkXk3ehVnjPj2-51" edge="1">
          <mxGeometry width="50" height="50" relative="1" as="geometry">
            <mxPoint x="120" y="139.76" as="sourcePoint" />
            <mxPoint x="160" y="139.76" as="targetPoint" />
          </mxGeometry>
        </mxCell>
        <mxCell id="PXjoyDLVkXk3ehVnjPj2-185" value="" style="endArrow=none;html=1;rounded=0;exitX=1;exitY=0.5;exitDx=0;exitDy=0;" parent="1" edge="1">
          <mxGeometry width="50" height="50" relative="1" as="geometry">
            <mxPoint x="120" y="99.52000000000001" as="sourcePoint" />
            <mxPoint x="120" y="100" as="targetPoint" />
            <Array as="points">
              <mxPoint x="130" y="100" />
            </Array>
          </mxGeometry>
        </mxCell>
        <mxCell id="PXjoyDLVkXk3ehVnjPj2-186" value="" style="endArrow=none;html=1;rounded=0;entryX=0;entryY=0.5;entryDx=0;entryDy=0;" parent="1" edge="1">
          <mxGeometry width="50" height="50" relative="1" as="geometry">
            <mxPoint x="120" y="159.76" as="sourcePoint" />
            <mxPoint x="279" y="160" as="targetPoint" />
          </mxGeometry>
        </mxCell>
        <mxCell id="PXjoyDLVkXk3ehVnjPj2-187" value="" style="endArrow=none;html=1;rounded=0;entryX=0;entryY=0.5;entryDx=0;entryDy=0;" parent="1" edge="1">
          <mxGeometry width="50" height="50" relative="1" as="geometry">
            <mxPoint x="120" y="179.76" as="sourcePoint" />
            <mxPoint x="279" y="180" as="targetPoint" />
          </mxGeometry>
        </mxCell>
        <mxCell id="PXjoyDLVkXk3ehVnjPj2-188" value="" style="endArrow=none;html=1;rounded=0;entryX=0;entryY=0.25;entryDx=0;entryDy=0;startArrow=oval;startFill=1;" parent="1" edge="1">
          <mxGeometry width="50" height="50" relative="1" as="geometry">
            <mxPoint x="210" y="200" as="sourcePoint" />
            <mxPoint x="279" y="-315" as="targetPoint" />
            <Array as="points">
              <mxPoint x="210" y="-315" />
            </Array>
          </mxGeometry>
        </mxCell>
        <mxCell id="PXjoyDLVkXk3ehVnjPj2-189" value="" style="endArrow=none;html=1;rounded=0;startArrow=oval;startFill=1;entryX=0;entryY=0.5;entryDx=0;entryDy=0;" parent="1" edge="1">
          <mxGeometry width="50" height="50" relative="1" as="geometry">
            <mxPoint x="160" y="-165" as="sourcePoint" />
            <mxPoint x="279" y="-165.24" as="targetPoint" />
            <Array as="points">
              <mxPoint x="170" y="-165.24" />
            </Array>
          </mxGeometry>
        </mxCell>
        <mxCell id="PXjoyDLVkXk3ehVnjPj2-190" value="" style="endArrow=none;html=1;rounded=0;startArrow=oval;startFill=1;entryX=0;entryY=0.5;entryDx=0;entryDy=0;" parent="1" target="PXjoyDLVkXk3ehVnjPj2-69" edge="1">
          <mxGeometry width="50" height="50" relative="1" as="geometry">
            <mxPoint x="150" y="60" as="sourcePoint" />
            <mxPoint x="260" y="-211" as="targetPoint" />
            <Array as="points">
              <mxPoint x="150" y="-210" />
            </Array>
          </mxGeometry>
        </mxCell>
        <mxCell id="PXjoyDLVkXk3ehVnjPj2-191" value="" style="endArrow=none;html=1;rounded=0;startArrow=oval;startFill=1;entryX=0;entryY=0.5;entryDx=0;entryDy=0;" parent="1" edge="1">
          <mxGeometry width="50" height="50" relative="1" as="geometry">
            <mxPoint x="150" y="-145" as="sourcePoint" />
            <mxPoint x="279" y="-145.24" as="targetPoint" />
            <Array as="points">
              <mxPoint x="170" y="-145.24" />
            </Array>
          </mxGeometry>
        </mxCell>
        <mxCell id="PXjoyDLVkXk3ehVnjPj2-192" value="" style="endArrow=none;html=1;rounded=0;startArrow=oval;startFill=1;entryX=0;entryY=0.5;entryDx=0;entryDy=0;" parent="1" edge="1">
          <mxGeometry width="50" height="50" relative="1" as="geometry">
            <mxPoint x="140" y="80" as="sourcePoint" />
            <mxPoint x="279" y="-125.24000000000001" as="targetPoint" />
            <Array as="points">
              <mxPoint x="140" y="-125" />
            </Array>
          </mxGeometry>
        </mxCell>
        <mxCell id="PXjoyDLVkXk3ehVnjPj2-193" value="" style="endArrow=none;html=1;rounded=0;startArrow=oval;startFill=1;entryX=0;entryY=0.5;entryDx=0;entryDy=0;" parent="1" edge="1">
          <mxGeometry width="50" height="50" relative="1" as="geometry">
            <mxPoint x="180" y="-99" as="sourcePoint" />
            <mxPoint x="279" y="-99.24000000000001" as="targetPoint" />
            <Array as="points" />
          </mxGeometry>
        </mxCell>
        <mxCell id="PXjoyDLVkXk3ehVnjPj2-194" value="" style="endArrow=none;html=1;rounded=0;startArrow=oval;startFill=1;entryX=0;entryY=0.5;entryDx=0;entryDy=0;" parent="1" target="PXjoyDLVkXk3ehVnjPj2-98" edge="1">
          <mxGeometry width="50" height="50" relative="1" as="geometry">
            <mxPoint x="190" y="160" as="sourcePoint" />
            <mxPoint x="250" y="-80" as="targetPoint" />
            <Array as="points">
              <mxPoint x="190" y="-80" />
            </Array>
          </mxGeometry>
        </mxCell>
        <mxCell id="PXjoyDLVkXk3ehVnjPj2-195" value="" style="endArrow=none;html=1;rounded=0;startArrow=oval;startFill=1;entryX=0;entryY=0.5;entryDx=0;entryDy=0;" parent="1" edge="1">
          <mxGeometry width="50" height="50" relative="1" as="geometry">
            <mxPoint x="200" y="180" as="sourcePoint" />
            <mxPoint x="279" y="-60" as="targetPoint" />
            <Array as="points">
              <mxPoint x="200" y="-60" />
            </Array>
          </mxGeometry>
        </mxCell>
        <mxCell id="PXjoyDLVkXk3ehVnjPj2-196" value="" style="endArrow=none;html=1;rounded=0;startArrow=oval;startFill=1;entryX=0;entryY=0.5;entryDx=0;entryDy=0;" parent="1" edge="1">
          <mxGeometry width="50" height="50" relative="1" as="geometry">
            <mxPoint x="210" y="-40" as="sourcePoint" />
            <mxPoint x="279" y="-40" as="targetPoint" />
            <Array as="points" />
          </mxGeometry>
        </mxCell>
        <mxCell id="PXjoyDLVkXk3ehVnjPj2-197" value="" style="endArrow=none;html=1;rounded=0;startArrow=oval;startFill=1;entryX=0;entryY=0.5;entryDx=0;entryDy=0;" parent="1" edge="1">
          <mxGeometry width="50" height="50" relative="1" as="geometry">
            <mxPoint x="130" y="-230" as="sourcePoint" />
            <mxPoint x="279" y="-230.33999999999997" as="targetPoint" />
            <Array as="points">
              <mxPoint x="170" y="-230.33999999999997" />
            </Array>
          </mxGeometry>
        </mxCell>
        <mxCell id="8lN0Hxl5M7ZEafr6a3I3-3" value="" style="rounded=0;whiteSpace=wrap;html=1;fillColor=none;" vertex="1" parent="1">
          <mxGeometry x="279" y="340" width="120" height="100" as="geometry" />
        </mxCell>
        <mxCell id="8lN0Hxl5M7ZEafr6a3I3-4" value="X0" style="text;html=1;align=center;verticalAlign=middle;whiteSpace=wrap;rounded=0;" vertex="1" parent="1">
          <mxGeometry x="279" y="350" width="40" height="20" as="geometry" />
        </mxCell>
        <mxCell id="8lN0Hxl5M7ZEafr6a3I3-5" value="X1" style="text;html=1;align=center;verticalAlign=middle;whiteSpace=wrap;rounded=0;" vertex="1" parent="1">
          <mxGeometry x="279" y="370" width="40" height="20" as="geometry" />
        </mxCell>
        <mxCell id="8lN0Hxl5M7ZEafr6a3I3-6" value="X2" style="text;html=1;align=center;verticalAlign=middle;whiteSpace=wrap;rounded=0;" vertex="1" parent="1">
          <mxGeometry x="279" y="390" width="40" height="20" as="geometry" />
        </mxCell>
        <mxCell id="8lN0Hxl5M7ZEafr6a3I3-7" value="X3" style="text;html=1;align=center;verticalAlign=middle;whiteSpace=wrap;rounded=0;" vertex="1" parent="1">
          <mxGeometry x="279" y="410" width="40" height="20" as="geometry" />
        </mxCell>
        <mxCell id="8lN0Hxl5M7ZEafr6a3I3-8" value="F(3:0)" style="text;html=1;align=center;verticalAlign=middle;whiteSpace=wrap;rounded=0;" vertex="1" parent="1">
          <mxGeometry x="359" y="380" width="40" height="20" as="geometry" />
        </mxCell>
        <mxCell id="8lN0Hxl5M7ZEafr6a3I3-9" value="Mask" style="text;html=1;align=center;verticalAlign=middle;whiteSpace=wrap;rounded=0;" vertex="1" parent="1">
          <mxGeometry x="319" y="340" width="40" height="20" as="geometry" />
        </mxCell>
        <mxCell id="8lN0Hxl5M7ZEafr6a3I3-10" value="OP5_BCD" style="text;html=1;align=center;verticalAlign=middle;whiteSpace=wrap;rounded=0;" vertex="1" parent="1">
          <mxGeometry x="319" y="420" width="40" height="20" as="geometry" />
        </mxCell>
        <mxCell id="8lN0Hxl5M7ZEafr6a3I3-11" value="" style="endArrow=none;html=1;rounded=0;startArrow=oval;startFill=1;entryX=0;entryY=0.5;entryDx=0;entryDy=0;" edge="1" parent="1">
          <mxGeometry width="50" height="50" relative="1" as="geometry">
            <mxPoint x="160" y="250" as="sourcePoint" />
            <mxPoint x="279" y="360" as="targetPoint" />
            <Array as="points">
              <mxPoint x="160" y="360" />
            </Array>
          </mxGeometry>
        </mxCell>
        <mxCell id="8lN0Hxl5M7ZEafr6a3I3-12" value="" style="endArrow=none;html=1;rounded=0;startArrow=oval;startFill=1;entryX=0;entryY=0.5;entryDx=0;entryDy=0;" edge="1" parent="1">
          <mxGeometry width="50" height="50" relative="1" as="geometry">
            <mxPoint x="150" y="270" as="sourcePoint" />
            <mxPoint x="279" y="380" as="targetPoint" />
            <Array as="points">
              <mxPoint x="150" y="380" />
            </Array>
          </mxGeometry>
        </mxCell>
        <mxCell id="8lN0Hxl5M7ZEafr6a3I3-13" value="" style="endArrow=none;html=1;rounded=0;startArrow=oval;startFill=1;entryX=0;entryY=0.5;entryDx=0;entryDy=0;" edge="1" parent="1">
          <mxGeometry width="50" height="50" relative="1" as="geometry">
            <mxPoint x="140" y="290" as="sourcePoint" />
            <mxPoint x="279" y="400" as="targetPoint" />
            <Array as="points">
              <mxPoint x="140" y="400" />
            </Array>
          </mxGeometry>
        </mxCell>
        <mxCell id="8lN0Hxl5M7ZEafr6a3I3-14" value="" style="endArrow=none;html=1;rounded=0;startArrow=oval;startFill=1;entryX=0;entryY=0.5;entryDx=0;entryDy=0;" edge="1" parent="1">
          <mxGeometry width="50" height="50" relative="1" as="geometry">
            <mxPoint x="130" y="310" as="sourcePoint" />
            <mxPoint x="279" y="420" as="targetPoint" />
            <Array as="points">
              <mxPoint x="130" y="420" />
            </Array>
          </mxGeometry>
        </mxCell>
        <mxCell id="8lN0Hxl5M7ZEafr6a3I3-15" value="Оп. 5" style="text;html=1;align=center;verticalAlign=middle;resizable=0;points=[];autosize=1;strokeColor=none;fillColor=none;" vertex="1" parent="1">
          <mxGeometry x="399" y="410" width="50" height="30" as="geometry" />
        </mxCell>
        <mxCell id="8lN0Hxl5M7ZEafr6a3I3-16" value="" style="endArrow=none;html=1;rounded=0;exitX=1;exitY=0.5;exitDx=0;exitDy=0;entryX=0;entryY=0.5;entryDx=0;entryDy=0;" edge="1" parent="1" target="8lN0Hxl5M7ZEafr6a3I3-18">
          <mxGeometry width="50" height="50" relative="1" as="geometry">
            <mxPoint x="399" y="390" as="sourcePoint" />
            <mxPoint x="560" y="350" as="targetPoint" />
            <Array as="points">
              <mxPoint x="450" y="390" />
              <mxPoint x="450" y="350" />
            </Array>
          </mxGeometry>
        </mxCell>
        <mxCell id="8lN0Hxl5M7ZEafr6a3I3-18" value="D2" style="text;html=1;align=center;verticalAlign=middle;whiteSpace=wrap;rounded=0;" vertex="1" parent="1">
          <mxGeometry x="590" y="340" width="40" height="20" as="geometry" />
        </mxCell>
        <mxCell id="8lN0Hxl5M7ZEafr6a3I3-19" value="bit_vector(3 downto 0)" style="edgeLabel;html=1;align=center;verticalAlign=middle;resizable=0;points=[];" vertex="1" connectable="0" parent="1">
          <mxGeometry x="520.0037931034482" y="360" as="geometry" />
        </mxCell>
      </root>
    </mxGraphModel>
  </diagram>
</mxfile>
